<svg width="36" height="35" viewBox="0 0 36 35" fill="none" xmlns="http://www.w3.org/2000/svg">
<path d="M17.0489 1.92705C17.3483 1.00574 18.6517 1.00574 18.9511 1.92705L22.2658 12.1287C22.3996 12.5407 22.7836 12.8197 23.2168 12.8197H33.9434C34.9122 12.8197 35.3149 14.0593 34.5312 14.6287L25.8532 20.9336C25.5027 21.1883 25.3561 21.6396 25.4899 22.0517L28.8046 32.2533C29.104 33.1746 28.0495 33.9407 27.2658 33.3713L18.5878 27.0664C18.2373 26.8117 17.7627 26.8117 17.4122 27.0664L8.73419 33.3713C7.95048 33.9407 6.896 33.1746 7.19535 32.2533L10.5101 22.0517C10.6439 21.6396 10.4973 21.1883 10.1468 20.9336L1.46877 14.6287C0.685055 14.0593 1.08783 12.8197 2.05655 12.8197H12.7832C13.2164 12.8197 13.6004 12.5407 13.7342 12.1287L17.0489 1.92705Z" stroke="#48B600" stroke-width="2"/>
</svg>
